<svg xmlns="http://www.w3.org/2000/svg" xmlns:xlink="http://www.w3.org/1999/xlink" viewBox="0 0 1921 1081"><defs><style>.cls-1{stroke:#000;stroke-miterlimit:10;fill:url(#linear-gradient);}</style><linearGradient id="linear-gradient" x1="224.34" y1="323.14" x2="1868.34" y2="1137.14" gradientUnits="userSpaceOnUse"><stop offset="0" stop-color="#101d2c" stop-opacity="0.9"/><stop offset="0.29" stop-color="#132130" stop-opacity="0.89"/><stop offset="0.46" stop-color="#1f2e3d" stop-opacity="0.88"/><stop offset="0.6" stop-color="#324353" stop-opacity="0.84"/><stop offset="0.72" stop-color="#4d6272" stop-opacity="0.8"/><stop offset="0.84" stop-color="#6f8a9a" stop-opacity="0.74"/><stop offset="0.9" stop-color="#88a6b7" stop-opacity="0.7"/></linearGradient></defs><title>contact-bg</title><g id="Layer_2" data-name="Layer 2"><g id="Layer_1-2" data-name="Layer 1"><path class="cls-1" d="M1873,278.23c-21.31-4.26-43.26-3-65-3a600.81,600.81,0,0,1-239.87-49.46c-20.23-8.78-40.23-18.76-61.85-23.13-22-4.44-44.61-2.88-67-2.68a552.39,552.39,0,0,1-203-36.81c-49.27-19-93-38.57-146.48-39.06-46-.42-90-2.45-135.59-11.81C870,95,770.13,59,702.49.5H.5v1080h1920V294.78C1905.05,288,1889.47,281.53,1873,278.23Z"/></g></g></svg>