<svg xmlns="http://www.w3.org/2000/svg" xmlns:xlink="http://www.w3.org/1999/xlink" viewBox="0 0 1920 293.24"><defs><style>.cls-1{fill:url(#linear-gradient);}</style><linearGradient id="linear-gradient" x1="-163.35" y1="320.96" x2="1720.34" y2="12.53" gradientUnits="userSpaceOnUse"><stop offset="0" stop-color="#88a6b7" stop-opacity="0.9"/><stop offset="0.04" stop-color="#7894a5" stop-opacity="0.9"/><stop offset="0.12" stop-color="#587080" stop-opacity="0.9"/><stop offset="0.21" stop-color="#3e5261" stop-opacity="0.9"/><stop offset="0.31" stop-color="#2a3a4a" stop-opacity="0.9"/><stop offset="0.42" stop-color="#1b2a39" stop-opacity="0.9"/><stop offset="0.55" stop-color="#13202f" stop-opacity="0.9"/><stop offset="0.74" stop-color="#101d2c" stop-opacity="0.9"/></linearGradient></defs><title>cv-bg</title><g id="Layer_2" data-name="Layer 2"><g id="Layer_1-2" data-name="Layer 1"><path class="cls-1" d="M80.86,275c49.68,0,93.77,12,142,16.6,46.54,4.41,93.06-6.54,139-12.2a614,614,0,0,1,160.3,1.39c34,4.78,67.92,12.45,102.25,11.4,25.23-.77,50-6.23,75-10.15a617.53,617.53,0,0,1,200,1.45c24.76,4.26,49.5,10.05,74.63,9.74,22.13-.27,43.88-5.27,65.68-9.11a628,628,0,0,1,197.7-3.06c32.85,4.73,65.6,12.09,98.78,11.25,26.56-.66,52.66-6.57,78.9-10.67a585.23,585.23,0,0,1,156.13-3.3c31.49,3.57,62.76,9.7,94.44,10.62,18.71.55,37.41-.73,56.09-2,46-3.14,94.82-10.81,142.31-13.2a465,465,0,0,1,51.19,0c1.56.09,3.15.22,4.73.33V0H0V279.35A745.29,745.29,0,0,1,80.86,275Z"/></g></g></svg>