<svg xmlns="http://www.w3.org/2000/svg" xmlns:xlink="http://www.w3.org/1999/xlink" viewBox="0 0 1920 617.16">
  <defs>
    <style>
      .cls-1 {
        fill: url(#linear-gradient);
      }
    </style>
    <linearGradient id="linear-gradient" x1="1296.71" y1="588.39" x2="371.37" y2="-158.51" gradientTransform="matrix(1, 0, 0, -1, 0, 620)" gradientUnits="userSpaceOnUse">
      <stop offset="0" stop-color="#101d2c" stop-opacity="0.9"/>
      <stop offset="0.73" stop-color="#1f2f3e" stop-opacity="0.9"/>
      <stop offset="0.78" stop-color="#223342" stop-opacity="0.9"/>
      <stop offset="0.87" stop-color="#2d3f4e" stop-opacity="0.9"/>
      <stop offset="0.92" stop-color="#3e5262" stop-opacity="0.9"/>
      <stop offset="0.96" stop-color="#576e7e" stop-opacity="0.9"/>
      <stop offset="1" stop-color="#7692a3" stop-opacity="0.9"/>
      <stop offset="1" stop-color="#88a6b7" stop-opacity="0.9"/>
    </linearGradient>
  </defs>
  <title>footer-bg</title>
  <g id="Layer_2" data-name="Layer 2">
    <g id="Layer_1-2" data-name="Layer 1">
      <g id="Layer_2-2" data-name="Layer 2">
        <g id="Layer_1-2-2" data-name="Layer 1-2">
          <path class="cls-1" d="M48.4,617.16a260.12,260.12,0,0,1,264.6,0,260.12,260.12,0,0,1,264.6,0,260.12,260.12,0,0,1,264.6,0,260.12,260.12,0,0,1,264.6,0,260.12,260.12,0,0,1,264.6,0,260.12,260.12,0,0,1,264.6,0,260.12,260.12,0,0,1,264.6,0q9.47-5.58,19.4-10.38V0H0V594.88A261.14,261.14,0,0,1,48.4,617.16Z"/>
        </g>
      </g>
    </g>
  </g>
</svg>
