<svg xmlns="http://www.w3.org/2000/svg" xmlns:xlink="http://www.w3.org/1999/xlink" viewBox="0 0 1920 338.51"><defs><style>.cls-1{fill:url(#linear-gradient);}</style><linearGradient id="linear-gradient" y1="169.25" x2="1920" y2="169.25" gradientUnits="userSpaceOnUse"><stop offset="0" stop-color="#101d2c" stop-opacity="0.9"/><stop offset="0.25" stop-color="#13202f" stop-opacity="0.9"/><stop offset="0.42" stop-color="#1b2a39" stop-opacity="0.9"/><stop offset="0.57" stop-color="#2a3b4a" stop-opacity="0.9"/><stop offset="0.71" stop-color="#3f5363" stop-opacity="0.9"/><stop offset="0.84" stop-color="#5a7282" stop-opacity="0.9"/><stop offset="0.96" stop-color="#7b97a8" stop-opacity="0.9"/><stop offset="1" stop-color="#88a6b7" stop-opacity="0.9"/></linearGradient></defs><title>portfolio-blog-bg</title><g id="Layer_2" data-name="Layer 2"><g id="Layer_1-2" data-name="Layer 1"><path class="cls-1" d="M65.82,317.12c53.13,0,99.77,13.57,151.26,17.56,52.34,4.05,104.44-8.87,156-14.64a573.18,573.18,0,0,1,184.77,9.48c17.79,3.87,35.59,8.63,53.89,8.88,19.2.27,38-4.44,56.73-8.24a621.53,621.53,0,0,1,230.56-2.89c26.7,4.72,53.4,11.23,80.6,10.52,21.53-.57,42.55-5.65,63.64-9.61a621.52,621.52,0,0,1,235.94,1.53c20.15,4.06,40.37,9.16,61,8.78,17.72-.32,35-4.67,52.27-8.26a619.39,619.39,0,0,1,227.76-4.2c28.2,4.76,56.33,11.52,85,11,59.84-1.09,116.78-19.39,177.67-19.42q18.76,0,37,.91V0H0V320.15C21.35,318.17,43.34,317.13,65.82,317.12Z"/></g></g></svg>