<svg xmlns="http://www.w3.org/2000/svg" xmlns:xlink="http://www.w3.org/1999/xlink" viewBox="0 0 1920 463.07"><defs><style>.cls-1{fill:url(#linear-gradient);}</style><linearGradient id="linear-gradient" y1="231.54" x2="1920" y2="231.54" gradientUnits="userSpaceOnUse"><stop offset="0.33" stop-color="#101d2c" stop-opacity="0.9"/><stop offset="0.51" stop-color="#13202f" stop-opacity="0.9"/><stop offset="0.62" stop-color="#1b2a39" stop-opacity="0.9"/><stop offset="0.72" stop-color="#293a49" stop-opacity="0.9"/><stop offset="0.81" stop-color="#3e5161" stop-opacity="0.9"/><stop offset="0.89" stop-color="#586f7f" stop-opacity="0.9"/><stop offset="0.97" stop-color="#7793a4" stop-opacity="0.9"/><stop offset="1" stop-color="#88a6b7" stop-opacity="0.9"/></linearGradient></defs><title>projects-bg</title><g id="Layer_2" data-name="Layer 2"><g id="Layer_1-2" data-name="Layer 1"><path class="cls-1" d="M55.54,286.58a254.37,254.37,0,0,1,114.73,48.35c10,7.46,19.65,15.74,31,20.06,15.36,5.86,32.73,4.06,49.57,3.63A286.11,286.11,0,0,1,432.54,417.2c10.23,7.75,20.29,16.34,32.28,19.76l1.42.37q18-.07,35.95,1.23a298.22,298.22,0,0,1,114.69,21.7,120.24,120.24,0,0,0,17.44,2.25c22.3,1.07,44.14-5.78,65.86-11.16a522.08,522.08,0,0,1,259.64,2.35c16.41,4.39,32.93,9.63,49.88,9.36,13.91-.22,27.47-4.14,41-7.52a544,544,0,0,1,232.78-6.68c17.49,3.32,35,7.52,52.75,7.64,19.72.13,39.1-4.75,58.49-8.53a526.43,526.43,0,0,1,174.13-4.49c23.85,3.38,47.49,8.4,71.48,10.44,58.21,5,114.29-13.81,171.36-12.57h.09c36.43.81,72.6,3.56,108.23,10.19V0H0V280.48C18.42,283,37.3,283.82,55.54,286.58Z"/></g></g></svg>